<svg xmlns="http://www.w3.org/2000/svg" viewBox="0 0 32 32" width="32" height="32">
  <defs>
    <linearGradient id="bgGrad" x1="0%" y1="0%" x2="100%" y2="100%">
      <stop offset="0%" stop-color="#1e1b4b" />
      <stop offset="100%" stop-color="#09090b" />
    </linearGradient>
    <linearGradient id="iconGrad" x1="0%" y1="0%" x2="100%" y2="100%">
      <stop offset="0%" stop-color="#a5b4fc" />
      <stop offset="100%" stop-color="#6366f1" />
    </linearGradient>
  </defs>
  <!-- Background -->
  <rect width="32" height="32" rx="8" fill="url(#bgGrad)" stroke="#4f46e5" stroke-width="1.5" />
  <!-- Clipboard Body -->
  <path d="M12 7H9a2 2 0 0 0-2 2v15a2 2 0 0 0 2 2h14a2 2 0 0 0 2-2V9a2 2 0 0 0-2-2h-3" 
        fill="none" stroke="url(#iconGrad)" stroke-width="2" stroke-linecap="round" stroke-linejoin="round" />
  <!-- Clip Top Header -->
  <path d="M12 7a2 2 0 0 1 2-2h4a2 2 0 0 1 2 2v1a1 1 0 0 1-1 1h-6a1 1 0 0 1-1-1V7z" 
        fill="#312e81" stroke="#818cf8" stroke-width="1.5" stroke-linejoin="round" />
  <!-- Checkmark -->
  <path d="M11 16.5l3.5 3.5 6.5-6.5" 
        fill="none" stroke="#34d399" stroke-width="2.2" stroke-linecap="round" stroke-linejoin="round" />
</svg>
